<mxfile host="app.diagrams.net" modified="2023-03-26T13:09:19.583Z" agent="5.0 (Windows NT 10.0; Win64; x64) AppleWebKit/537.36 (KHTML, like Gecko) Chrome/111.0.0.0 Safari/537.36" etag="6j1jPV3I5YZGX3GgkRIO" version="20.8.5" type="github">
  <diagram id="qcCd-yi8SIg15_Zngr9N" name="Страница 1">
    <mxGraphModel dx="555" dy="841" grid="1" gridSize="10" guides="1" tooltips="1" connect="1" arrows="1" fold="1" page="1" pageScale="1" pageWidth="827" pageHeight="1169" math="0" shadow="0">
      <root>
        <mxCell id="0" />
        <mxCell id="1" parent="0" />
        <mxCell id="hBEEkZ3J2MCN_tzQbaoY-2" style="edgeStyle=orthogonalEdgeStyle;rounded=0;orthogonalLoop=1;jettySize=auto;html=1;" parent="1" edge="1">
          <mxGeometry relative="1" as="geometry">
            <mxPoint x="1246.94" y="300" as="targetPoint" />
            <mxPoint x="1246.94" y="310" as="sourcePoint" />
          </mxGeometry>
        </mxCell>
        <mxCell id="hBEEkZ3J2MCN_tzQbaoY-14" value="" style="edgeStyle=orthogonalEdgeStyle;rounded=0;orthogonalLoop=1;jettySize=auto;html=1;" parent="1" source="hBEEkZ3J2MCN_tzQbaoY-1" target="hBEEkZ3J2MCN_tzQbaoY-3" edge="1">
          <mxGeometry relative="1" as="geometry" />
        </mxCell>
        <mxCell id="hBEEkZ3J2MCN_tzQbaoY-1" value="&lt;div&gt;Написать программу, которая из имеющегося массива строк формирует массив из строк,&amp;nbsp;&lt;/div&gt;&lt;div&gt;длина которых меньше либо равна 3 символа. Первоначальный массив можно ввести с клавиатуры, либо задать на старте выполнения алгоритма.&amp;nbsp;&lt;/div&gt;&lt;div&gt;При решение не рекомендуется пользоваться коллекциями, лучше обойтись исключительно массивами&lt;/div&gt;" style="ellipse;whiteSpace=wrap;html=1;" parent="1" vertex="1">
          <mxGeometry x="1067.94" width="360" height="200" as="geometry" />
        </mxCell>
        <mxCell id="hBEEkZ3J2MCN_tzQbaoY-5" value="" style="edgeStyle=orthogonalEdgeStyle;rounded=0;orthogonalLoop=1;jettySize=auto;html=1;" parent="1" source="hBEEkZ3J2MCN_tzQbaoY-3" edge="1">
          <mxGeometry relative="1" as="geometry">
            <mxPoint x="1246.94" y="370" as="targetPoint" />
          </mxGeometry>
        </mxCell>
        <mxCell id="hBEEkZ3J2MCN_tzQbaoY-3" value="&lt;div&gt;string[] size ;&lt;/div&gt;&lt;div&gt;string[] selected ;&lt;/div&gt;&lt;div&gt;int count = 0;&lt;br&gt;&lt;/div&gt;" style="rounded=0;whiteSpace=wrap;html=1;" parent="1" vertex="1">
          <mxGeometry x="1104.44" y="260" width="285" height="70" as="geometry" />
        </mxCell>
        <mxCell id="hBEEkZ3J2MCN_tzQbaoY-15" style="edgeStyle=orthogonalEdgeStyle;rounded=0;orthogonalLoop=1;jettySize=auto;html=1;entryX=0.5;entryY=0;entryDx=0;entryDy=0;" parent="1" source="hBEEkZ3J2MCN_tzQbaoY-6" target="hBEEkZ3J2MCN_tzQbaoY-7" edge="1">
          <mxGeometry relative="1" as="geometry" />
        </mxCell>
        <mxCell id="hBEEkZ3J2MCN_tzQbaoY-28" style="edgeStyle=orthogonalEdgeStyle;rounded=0;orthogonalLoop=1;jettySize=auto;html=1;exitX=1;exitY=0.5;exitDx=0;exitDy=0;entryX=0;entryY=0.5;entryDx=0;entryDy=0;" parent="1" source="hBEEkZ3J2MCN_tzQbaoY-6" target="hBEEkZ3J2MCN_tzQbaoY-17" edge="1">
          <mxGeometry relative="1" as="geometry" />
        </mxCell>
        <mxCell id="hBEEkZ3J2MCN_tzQbaoY-6" value="for (int i = 0; i &amp;lt; size&amp;nbsp;.Length; i++)" style="rhombus;whiteSpace=wrap;html=1;fillColor=#f8cecc;strokeColor=#b85450;" parent="1" vertex="1">
          <mxGeometry x="1084.44" y="370" width="325" height="110" as="geometry" />
        </mxCell>
        <mxCell id="hBEEkZ3J2MCN_tzQbaoY-10" value="" style="edgeStyle=orthogonalEdgeStyle;rounded=0;orthogonalLoop=1;jettySize=auto;html=1;" parent="1" source="hBEEkZ3J2MCN_tzQbaoY-7" target="hBEEkZ3J2MCN_tzQbaoY-9" edge="1">
          <mxGeometry relative="1" as="geometry" />
        </mxCell>
        <mxCell id="hBEEkZ3J2MCN_tzQbaoY-12" style="edgeStyle=orthogonalEdgeStyle;rounded=0;orthogonalLoop=1;jettySize=auto;html=1;entryX=0;entryY=0.5;entryDx=0;entryDy=0;exitX=0;exitY=0.5;exitDx=0;exitDy=0;" parent="1" source="hBEEkZ3J2MCN_tzQbaoY-7" target="hBEEkZ3J2MCN_tzQbaoY-6" edge="1">
          <mxGeometry relative="1" as="geometry">
            <Array as="points">
              <mxPoint x="1064" y="585" />
              <mxPoint x="1064" y="425" />
            </Array>
          </mxGeometry>
        </mxCell>
        <mxCell id="hBEEkZ3J2MCN_tzQbaoY-7" value="if (size&amp;nbsp;[i].Length &amp;lt;= 3)" style="rhombus;whiteSpace=wrap;html=1;fillColor=#d5e8d4;strokeColor=#82b366;" parent="1" vertex="1">
          <mxGeometry x="1085.44" y="530" width="325" height="110" as="geometry" />
        </mxCell>
        <mxCell id="hBEEkZ3J2MCN_tzQbaoY-19" style="edgeStyle=orthogonalEdgeStyle;rounded=0;orthogonalLoop=1;jettySize=auto;html=1;entryX=0;entryY=0.5;entryDx=0;entryDy=0;" parent="1" source="hBEEkZ3J2MCN_tzQbaoY-9" target="hBEEkZ3J2MCN_tzQbaoY-6" edge="1">
          <mxGeometry relative="1" as="geometry">
            <Array as="points">
              <mxPoint x="1000" y="770" />
              <mxPoint x="1000" y="425" />
            </Array>
          </mxGeometry>
        </mxCell>
        <mxCell id="hBEEkZ3J2MCN_tzQbaoY-9" value="selected&amp;nbsp;&lt;span style=&quot;background-color: initial;&quot;&gt;[count] = size&amp;nbsp;[i];&lt;/span&gt;&lt;br&gt;&lt;div&gt;count++;&lt;/div&gt;" style="whiteSpace=wrap;html=1;" parent="1" vertex="1">
          <mxGeometry x="1086.94" y="730" width="320" height="75.5" as="geometry" />
        </mxCell>
        <mxCell id="hBEEkZ3J2MCN_tzQbaoY-11" value="Да" style="text;html=1;strokeColor=none;fillColor=none;align=center;verticalAlign=middle;whiteSpace=wrap;rounded=0;" parent="1" vertex="1">
          <mxGeometry x="1250.44" y="670" width="60" height="30" as="geometry" />
        </mxCell>
        <mxCell id="hBEEkZ3J2MCN_tzQbaoY-13" value="Нет" style="text;html=1;strokeColor=none;fillColor=none;align=center;verticalAlign=middle;whiteSpace=wrap;rounded=0;" parent="1" vertex="1">
          <mxGeometry x="1066.94" y="480" width="60" height="30" as="geometry" />
        </mxCell>
        <mxCell id="hBEEkZ3J2MCN_tzQbaoY-16" value="Да" style="text;html=1;strokeColor=none;fillColor=none;align=center;verticalAlign=middle;whiteSpace=wrap;rounded=0;" parent="1" vertex="1">
          <mxGeometry x="1250.44" y="490" width="60" height="30" as="geometry" />
        </mxCell>
        <mxCell id="hBEEkZ3J2MCN_tzQbaoY-30" style="edgeStyle=orthogonalEdgeStyle;rounded=0;orthogonalLoop=1;jettySize=auto;html=1;entryX=0.5;entryY=0;entryDx=0;entryDy=0;" parent="1" source="hBEEkZ3J2MCN_tzQbaoY-17" target="hBEEkZ3J2MCN_tzQbaoY-20" edge="1">
          <mxGeometry relative="1" as="geometry" />
        </mxCell>
        <mxCell id="hBEEkZ3J2MCN_tzQbaoY-32" value="" style="edgeStyle=orthogonalEdgeStyle;rounded=0;orthogonalLoop=1;jettySize=auto;html=1;" parent="1" source="hBEEkZ3J2MCN_tzQbaoY-17" edge="1">
          <mxGeometry relative="1" as="geometry">
            <mxPoint x="1850" y="425" as="targetPoint" />
          </mxGeometry>
        </mxCell>
        <mxCell id="hBEEkZ3J2MCN_tzQbaoY-17" value="for (int i = 0; i &amp;lt; selected&amp;nbsp;.Length; i++)" style="rhombus;whiteSpace=wrap;html=1;fillColor=#f8cecc;strokeColor=#b85450;" parent="1" vertex="1">
          <mxGeometry x="1480" y="370" width="325" height="110" as="geometry" />
        </mxCell>
        <mxCell id="hBEEkZ3J2MCN_tzQbaoY-31" style="edgeStyle=orthogonalEdgeStyle;rounded=0;orthogonalLoop=1;jettySize=auto;html=1;entryX=0;entryY=0.5;entryDx=0;entryDy=0;" parent="1" source="hBEEkZ3J2MCN_tzQbaoY-20" target="hBEEkZ3J2MCN_tzQbaoY-17" edge="1">
          <mxGeometry relative="1" as="geometry">
            <Array as="points">
              <mxPoint x="1460" y="580" />
              <mxPoint x="1460" y="425" />
            </Array>
          </mxGeometry>
        </mxCell>
        <mxCell id="hBEEkZ3J2MCN_tzQbaoY-20" value="Console.Write($&quot;{selected&amp;nbsp;[i]} &quot;)" style="whiteSpace=wrap;html=1;" parent="1" vertex="1">
          <mxGeometry x="1582.5" y="555" width="120" height="60" as="geometry" />
        </mxCell>
        <mxCell id="hBEEkZ3J2MCN_tzQbaoY-23" value="Да" style="text;html=1;strokeColor=none;fillColor=none;align=center;verticalAlign=middle;whiteSpace=wrap;rounded=0;" parent="1" vertex="1">
          <mxGeometry x="1630" y="500" width="60" height="30" as="geometry" />
        </mxCell>
        <mxCell id="hBEEkZ3J2MCN_tzQbaoY-29" value="Нет" style="text;html=1;strokeColor=none;fillColor=none;align=center;verticalAlign=middle;whiteSpace=wrap;rounded=0;" parent="1" vertex="1">
          <mxGeometry x="1389.44" y="380" width="60" height="30" as="geometry" />
        </mxCell>
        <mxCell id="hBEEkZ3J2MCN_tzQbaoY-33" value="Нет" style="text;html=1;strokeColor=none;fillColor=none;align=center;verticalAlign=middle;whiteSpace=wrap;rounded=0;" parent="1" vertex="1">
          <mxGeometry x="1780" y="380" width="60" height="30" as="geometry" />
        </mxCell>
        <mxCell id="hBEEkZ3J2MCN_tzQbaoY-34" value="Console.WriteLine();" style="shape=document;whiteSpace=wrap;html=1;boundedLbl=1;" parent="1" vertex="1">
          <mxGeometry x="1850" y="390" width="120" height="80" as="geometry" />
        </mxCell>
      </root>
    </mxGraphModel>
  </diagram>
</mxfile>
